<?xml version="1.0" encoding="UTF-8"?>
<svg id="Calque_1" xmlns="http://www.w3.org/2000/svg" version="1.1" viewBox="0 0 456.7645 595.2756">
  <!-- Generator: Adobe Illustrator 29.5.1, SVG Export Plug-In . SVG Version: 2.1.0 Build 141)  -->
  <defs>
    <style>
      .st0 {
        fill: #292e44;
      }

      .st1 {
        fill: #fff;
      }

      .st2 {
        fill: none;
        stroke: #e60013;
      }

      .st3 {
        fill: #e60013;
      }

      .st4 {
        fill: #e61412;
      }
    </style>
  </defs>
  <g>
    <g>
      <path class="st3" d="M136.8834,521.9518c.6251-.3676,2.0281-1.1178,2.1956-1.2182.2682-.1609.4281-.14.4367-.0566.034.3186.0257.9885.4315,1.1251.1171.0393.4215-.1032.4757-.0219.147.2206.1574.181.1963.2453.0472.0782.2498.0327.294.0733.1122.1035-.007.2391.0573.3085.1053.1143.3019-.0698.4017-.05.1817.0358.2269.2404.196.3718-.0511.2158.082.3818.4361.0869.1838-.1532.1966-.074.3554-.1532.0949-.0469.2519-.0424.319.0247.0667.0671.1723.1834.2728.2206.148.0553.3057-.0021.3958.0351.1372.0566.1417.2571.2588.2738.1171.0167.2359-.2095.3103-.14.2116.1987-.1775.5406.0921.6157.1463.0403.2047-.0751.3221-.0921.1171-.0167.1852-.1564.2856-.1564s.1741.1195.3013.0504c.1046-.057.1876-.0994.2842-.1567.1414-.0841.2884-.0424.3718-.1102.0994-.0806.0226-.3012.3169-.2463.303.057-.0486.3342.0848.4472.1021.0862.3523.0028.4329-.0243.1657-.0549.3148-.255.3707-.394.0667-.1675.3179-.7199.4183-.8704.1004-.1508.3513-.7366.4854-.9374.1338-.2008.6696-1.0546.7196-1.1883.0504-.1341.2429-.3179.2929-.4184.0504-.1008.1591-.4354.2929-.7032.1341-.2679.5021-.8033.5358-.9038.0333-.1004.3179-.7533.4183-.9541.1004-.2008.452-.6612.5358-.8787.0837-.2179.3179-.6779.3179-.6779l.2509-.4184s.0838-.1842.2012-.4354c.1171-.2509.4687-.7867.5691-.9708.1001-.1842.3846-.5691.3846-.5691l.2179-.4854.1672-.368s.1341-.4354.2008-.5524c.0671-.1175.3016-.4017.3683-.5524.067-.1505.2679-.82.3683-1.0209.1004-.2008.5858-1.0712.6362-1.2387.05-.1675.5521-1.0712.6025-1.2554.05-.1841.067-.435.1337-.5524.0671-.1171.2679-.4183.3013-.5021.0334-.0838.3683-.8871.4183-1.0042.0504-.1171.0838-.3349.2179-.3349.1338,0,.2304.1442.3179.2679.1004.1425.3012.1171.4183.2345.1174.1171.5021.5354.5191.6025.0167.0667.2342.0837.2846.1504.0501.0671.0834.2345.1505.2679.0671.0337.4017.2679.4687.3683.067.1004.1508.3013.2345.3683.0834.0667.4684.3012.5188.4017.05.1004.6025.7699.6692.887.0671.1171.1174.3179.1675.4017.0504.0838.2512.2008.2679.2846.0167.0838.0337.385.0838.4687.05.0838.2846.1842.3179.2679.0337.0834.1341.4017.1842.4517.0504.0504.1508.1174.1842.1842.0337.067.0671.4354.1171.5021.0504.0671.2175.3516.2679.4687s.2175.3349.2512.4183c.0333.0837.05.4183.0834.5358.0337.1171.1841.3683.2012.4354.0167.0667.05.2675.05.2675l.1338.3179s.1508.3183.1508.4354.0334.2512.0501.3346c.017.0838.1508.3013.1508.3683s.1842.452.1842.452c0,0-.0337.3346,0,.4183.0333.0837.1841.3179.1841.4017s-.05.3013-.05.3013l.0834.1341s-.05.1838-.0167.2509c.0334.0671-.0333.2179.0167.2679.05.0504.1842.4038.1842.4038-.1004.1171-7.0837,3.3471-10.0763,4.7439-4.313,2.0132-13.2782,6.5086-14.2323,7.0611-.9538.5521-1.5552.8697-1.786.7512-.5306-.2731-1.3922-1.0396-1.9822-2.6789-.4976-1.3822-.4993-2.533-.4583-3.1105.0316-.4416-.0025-.7724.6678-1.1598.2324-.1341,1.4628-.8263,2.0879-1.1939Z"/>
      <path class="st3" d="M124.4669,497.2252c.0354.0751.1824.0591.2898.0872.0584.0157.1706.1209.2391.1289.0688.008.1678-.0264.2026,0,.1102.083.0886.1939.1557.2943s.1004.2679.2008.3013c.1004.0337.2345.017.2679.1174.0333.1004-.0413.2554.0333.385.1908.3301.0254,1.2554.1925,1.3221.1675.0671.6724-.0952.8454-.2509.1783-.1605.4326-.4409.5691-.5024.2603-.1164.7644-.386,1.0042-.435.2397-.049.3648-.4472.6025-.4687.238-.0216.1508-.2092.3183-.2762.1675-.0667.4812-.238.5816-.1376.0455.0455.1411.1748.2943.2332.1845.0698.3794-.0202.4128.1807.0501.3002.5021.0333.5021.0333,0,0,.5563-.3603.7908-.4607.2342-.1008.8579-.4263.8579-.4263,0,0,.492-.2544.6946-.3513,7.5416-3.6219,13.4884-5.6187,18.9473-7.733,8.5017-3.2925,23.2117-7.0684,26.0108-7.7664.294-.0733.9454-.1737,1.0254-.2213.0802-.0473.2133-.0799.28-.3478.067-.2675-.1338-.6359-.1338-.7696,0-.1341.3013-.6696.3346-.9041.0337-.2342-.2008-.2675-.2008-.2675,0,0,.0295-.2905-.0334-.5024-.0625-.2116-.4354-.4017-.5021-.5688-.0671-.1675,0-.6695-.0671-.837s-.2679-.3013-.2679-.3013c0,0,.0473-.0886,0-.2345-.0469-.1456-.2008-.1337-.2008-.1337,0,0,.0605-.3193.0337-.4354-.0267-.1157-.2012-.2008-.2012-.2008,0,0-.2005-.1338-.2005-.2676,0-.1341-.0337-.2345-.1341-.3013-.1004-.067-.4017-.067-.5021-.1008-.1004-.0333-.3346-.1004-.5021-.0667-.1675.0334-.2342.1675-.7032.2676-.4684.1008-.6692,0-.8701.0337-.2012.0334-.4336.1731-.6695.2342-2.2752.5924-12.7194,3.6323-20.4205,6.5281-7.157,2.6911-15.6864,6.5701-20.8886,9.2726-3.9353,2.0441-6.0403,3.2279-6.9103,3.7675-.4486.2779-.943.6056-1.0177.7356-.1171.2036-.2543.5146-.5118.5514-.3166.0452-.2724.2179-.3728.2432-.1171.0292-.2515.1563-.3516.2508-.0997.0942-.0605.2262-.025.3013Z"/>
      <path class="st3" d="M156.9805,492.5553c-.3489-.2074-.2293-.4044.1754-.5775,2.4913-1.0643,8.78-3.3075,12.3862-4.4524,3.0782-.9771,11.5815-3.7463,13.9533-4.4277.5685-.1633.7981-.1574,1.0504.1101.6414.6817,1.2668,1.6011,1.8551,2.7411.5434,1.0525,1.0115,2.5743,1.1953,3.5306.1348.7012-.1869.8207-.5681.9913-2.6313,1.1782-9.1246,4.0215-11.8251,5.297-2.639,1.2467-7.4652,3.567-9.101,4.3905-.6915.3478-.5768.4895-1.0455-.0459-.1414-.1612-.3683-.5358-.4354-.6362-.0667-.1004-.9708-.9038-1.0712-1.0042-.1004-.1004-.6025-.7029-.7363-.8033-.1341-.1004-.5691-.7033-.7033-.77-.1337-.0671-.3596-.1758-.4604-.2762-.1001-.1004-.2759-.3099-.3763-.3766-.1004-.0671-.3266-.3013-.3266-.3013l-.3096-.2846-.2679-.3013s-.2342-.3013-.4017-.3683c-.1675-.067-.4017-.3346-.4684-.435-.067-.1004-.6028-.77-.8707-.9375-.2676-.1675-.9121-.5858-1.0459-.6862-.1341-.1004-.3134-.2047-.6025-.3767Z"/>
      <path class="st3" d="M166.561,501.7255c-.2575-.2575.0737-.2936.3701-.4079,1.0969-.4232,7.6514-2.4746,13.3549-3.9757,5.6831-1.4955,13.9098-3.2022,15.1312-3.4496.516-.1046.7123-.0247.9725.3954.3023.4871.9295,2.1073,1.1716,3.4145.3075,1.6574.0132,3.3492-.1338,3.7494-.1233.336-.5886.3596-1.697.6609-.665.1804-3.5007.91-4.6626,1.247-1.3388.3885-4.8867,1.4142-6.1931,1.8596-1.6181.5514-3.7474,1.2536-3.7474,1.2536l-11.2841.1928s-.1675-.762-.2679-.8287c-.1004-.0671-.2679-.4354-.3683-.5358-.1001-.1004-.2342-.4687-.2342-.4687,0,0-.1004-.4017-.2008-.4687-.1004-.0667-.3433-.6442-.4437-.7112-.1004-.0667-.3263-.36-.4267-.4937-.1004-.1338-.1591-.3013-.3266-.435-.1671-.1341-.3763-.402-.5101-.4687-.1341-.067-.2467-.272-.5042-.5295Z"/>
      <path class="st3" d="M152.5115,467.3933l.163-.1633s.0879-.1004.1758-.163c.0879-.0629.3012-.0629.3012-.0629,0,0,.2439-.1911.5021-.1379.1126.0229.1883-.1758.2887-.2008.1004-.0254.4646-.0754.5149-.0254.05.0504.1129.1129.3137.1508.2008.0375.3742-.0087.4517.0125.1035.0278.2137.1633.2888.1883.0754.025.9916.8693,1.1174,1.0796.0431.0723.0542.2109.0754.2508.0379.0723.1956.1703.2509.402.0441.1849.2283.2401.2512.5021.0139.1577.3079.2898.3892.615.0195.0782.0591.3968.0841.4468.025.0504.0928.0674.1293.1807.0365.1136.0629.2766.0504.4145-.0128.1379.2384.6529.2133.9666-.025.3137-.0879.6529-.1633.8912-.0754.2387-.025.6904-.0754.8787-.05.1883-.1883.6404-.2133.7783-.025.1383-.4142,1.0921-.4771,1.1928-.0629.1001-.2829.5292-.3833.6546-.1004.1258-.8732,1.2043-1.0111,1.3426-.1383.1379-.484.3968-.5514.5007-.0921.1428-.1657.3082-.2637.4646-.1539.2464-.3617.0643-.4642.2383-.1397.2373-.4058.3002-.452.4396-.0705.2137-.2484.3999-.3263.4645-.1855.154-.5806.27-.7783.2759-.321.0101-.6025.0066-.6779-.0876-.0445-.0556.0017-.1449-.0754-.2137-.0799-.0709-.2387-.05-.2887-.0125-.0504.0379-.0375.0379-.1508.0754-.1129.0375-.5396-.1129-.6904-.0629-.1505.0504-.4705.0657-.5775.0129-.1091-.0542-.1279-.3485-.3137-.427-.0994-.0421-.4142-.2133-.5146-.3892-.1004-.1758-.3652-.4371-.4211-.5622-.0556-.1247-.1425-.3259-.1814-.4295-.0392-.1035-.1383-.3137-.2012-.3891-.0625-.0754-.1473-.1425-.2133-.2133-.066-.0712-.1213-.3103-.188-.4145-.034-.0524-.1112-.1581-.1508-.2383-.0396-.0803-.0375-.1713-.0754-.2637-.0379-.0924-.1504-.2259-.1758-.3137-.025-.0879-.0626-.6779-.05-1.1299.0125-.4517.0017-.8503.05-1.0417.0459-.1814.1383-.3516.1758-.5399.0379-.1883.2762-.8033.3391-1.0921.0626-.2887.2134-.8287.2884-1.017.0754-.188.2762-.6904.3766-.8533.1008-.1633.4771-.7283.6278-.9166.1508-.1883.8409-.8787,1.0042-1.0041.1633-.1258.5438-.4031.6654-.4896"/>
      <path class="st3" d="M130.3671,513.0426s-3.3026,1.1129-4.6198,1.5816c-1.2505.4451-2.6178.9287-3.5399,1.3057-1.1174.4566-3.0948,1.2606-3.5646,1.4249-.7352.2575-1.0493.1042-1.2502-.3311-.2008-.435-.6754-1.345-.9434-2.4162-.2675-1.0712-.3648-1.959-.3805-2.2908-.016-.3318.2575-.9194.6619-1.14.4044-.2206,1.3617-.8071,2.133-1.2505,1.4708-.8457,6.5423-3.55,9.5614-5.1118,3.1994-1.6546,8.2435-4.0993,10.9551-5.4385,2.7116-1.3391,7.1639-3.4478,7.6997-3.6824.5354-.2342,1.1046-.5021,1.3725-.5021.2676,0,.1675.1338.1675.2345,0,.1004-.0924.1421-.1258.3429-.0334.2008-.0083.427-.075.6279-.0671.2008-.2429.3933-.2766.5271-.0333.1338-.0584.6108-.1925.7783-.1338.1675-.6108,1.0963-.7112,1.5316-.1004.435-.3263,1.1466-.4267,1.3138-.1004.1675-.4187.7954-.452.9962-.0334.2008-.2509.6775-.3179.8787-.0671.2008-.4687.9455-.5354,1.0796-.0671.1338-.3349,1.0292-.402,1.163-.067.1341-.3346.5358-.3346.5358l-.1338.5691s-.3683.5358-.3683.6362-.2679,1.0042-.4017,1.205c-.1341.2008-.7703,1.6404-.9041,2.1424-.1337.5021-.3679,1.2387-.4354,1.4062-.0667.1671-.435.7699-.5017.9708-.0671.2008-.3683,1.205-.4687,1.4058-.1004.2008-.3683.7699-.3683.9708s-.2008.6362-.3683,1.0041c-.1672.3683-.3683,1.0045-.4687,1.2387-.1004.2345-.2349.3975-.2682.5313-.0334.1341-.0664.5066-.1001.607-.0333.1004-.1004.2679-.1004.2679-.1671.0813-9.1722,3.9499-10.4443,4.5524-1.2721.6025-10.4099,4.9329-10.979,5.2007-.5688.2679-1.3266.8503-1.8752.4781-.7234-.4903-1.41-1.5201-1.8752-2.4315-.3881-.7609-.8096-2.0305-.8704-2.9458-.0765-1.1529.4041-1.3648,2.0959-2.3454.8297-.4812,7.404-3.9471,9.5124-5.0381.5983-.3099,4.9207-2.5841,4.9207-2.5841Z"/>
    </g>
    <g>
      <polygon class="st0" points="201.0843 512.0906 200.6072 513.9623 197.5468 513.9623 197.1423 515.546 200.784 515.546 200.3059 517.4178 194.3605 517.4178 196.5888 508.6882 202.5346 508.6875 202.0571 510.5593 198.4147 510.5593 198.0238 512.0906 201.0843 512.0906"/>
      <polygon class="st0" points="185.4913 512.0885 185.0139 513.9595 181.9528 513.9595 181.5483 515.5433 185.1908 515.5433 184.7126 517.415 178.7673 517.415 180.9966 508.6855 186.9416 508.6855 186.4631 510.5565 182.8214 510.5565 182.4309 512.0885 185.4913 512.0885"/>
      <path class="st0" d="M207.5036,517.3601c-.6824.065-1.624.196-2.0448.196-2.6268,0-4.0031-1.6226-3.2543-4.5288.7467-2.8916,2.9593-4.5149,5.5861-4.5149.6425,0,1.2912.1046,1.9002.2353l-.3457,2.0288c-.5257-.196-1.0615-.3533-1.6602-.3533-1.7946,0-2.8561,1.453-3.1566,2.6181-.3475,1.3481.0045,2.6038,1.4225,2.6038.9086,0,1.6063-.1699,2.2853-.353l-.7325,2.0681Z"/>
      <polygon class="st0" points="211.2183 508.6959 213.5212 508.6959 211.2926 517.4251 208.9896 517.4251 211.2183 508.6959"/>
      <polygon class="st0" points="173.891 508.7209 173.7416 514.2049 173.7631 514.2049 176.4799 508.7209 179.4962 508.7209 177.2676 517.4606 175.359 517.4606 176.9559 511.1941 176.9341 511.1941 173.8233 517.4501 171.8598 517.4512 171.9838 511.208 171.9616 511.208 170.3681 517.4512 168.6127 517.4512 170.8414 508.7209 173.891 508.7209"/>
      <polygon class="st0" points="215.2408 508.6875 217.9611 508.6868 219.3196 514.3667 219.3412 514.3667 220.7911 508.6868 222.8088 508.6868 220.5809 517.4164 217.894 517.4164 216.4757 511.8414 216.4538 511.8414 215.0306 517.4171 213.0122 517.4171 215.2408 508.6875"/>
      <path class="st0" d="M222.6685,515.0739c.4965.3412,1.1278.5896,1.7672.5896.3746,0,1.0417-.0653,1.1994-.6803.286-1.1129-2.2856-2.0028-1.7151-4.2279.262-1.0209,1.2529-2.2644,3.2821-2.2644.6616,0,1.3072.1046,1.8867.2491l-.2762,2.0677c-.4371-.2752-.9663-.4451-1.5066-.4451-.353,0-1.0139.1699-1.1316.6282-.3294,1.2828,2.3169,1.885,1.7328,4.1618-.3026,1.1779-1.3614,2.3825-3.4117,2.3825-.7387,0-1.4506-.1445-2.1275-.3013l.3006-2.1601Z"/>
      <path class="st0" d="M190.2643,510.5558h.8117c1.2283,0,1.5021.8645,1.0875,2.4871-.328,1.2825-1.2415,2.5003-2.5139,2.5003h-.9979l1.2724-4.9874h.501l.0233-1.8711h-2.2509l-2.2289,8.7296h3.6528c2.5233,0,4.197-1.8322,4.8457-4.3714.9423-3.6907-1.0594-4.3582-2.1337-4.3582h-2.0236l-.0455,1.8711Z"/>
    </g>
    <polygon class="st0" points="291.551 509.0465 294.2712 509.0465 295.6291 514.7271 295.6513 514.7271 297.1013 509.0465 299.119 509.0465 296.8914 517.776 294.2034 517.776 292.7858 512.201 292.7643 512.201 291.3407 517.776 289.3223 517.776 291.551 509.0465"/>
    <path class="st0" d="M274.5918,509.0465h3.9055c1.9305,0,2.4395.9295,1.9982,2.6577-.2644,1.034-1.0462,1.7793-2.1657,2.2112.2029,1.3092.3784,2.6827.6154,3.8606h-2.4784c-.0844-1.6487-.1647-3.311-.3742-4.894.198.0389.3777.065.5532.065.6362,0,1.401-.2884,1.6185-1.1383.237-.9295-.476-.9295-.8051-.9295h-1.1296l-1.7613,6.8967h-2.2046l2.2283-8.7296Z"/>
    <polygon class="st0" points="272.0466 512.4502 271.5692 514.322 268.7826 514.322 267.9001 517.7767 265.5971 517.7774 267.8257 509.0472 273.4528 509.0472 272.9754 510.9193 269.6513 510.9193 269.2607 512.4502 272.0466 512.4502"/>
    <polygon class="st0" points="300.0463 509.0437 306.5428 509.0437 306.0654 510.9158 303.974 510.9158 302.2228 517.7733 299.9198 517.7733 301.6704 510.9158 299.5689 510.9158 300.0463 509.0437"/>
    <path class="st0" d="M232.2392,515.4164c.5024.3409,1.1397.5893,1.7852.5893.3784,0,1.0528-.065,1.2116-.6803.2884-1.1129-2.3096-2.0024-1.7324-4.2276.2644-1.0212,1.2661-2.2644,3.3148-2.2644.6678,0,1.3207.1046,1.9065.2491l-.2804,2.0674c-.4402-.2745-.9753-.4447-1.5208-.4447-.3565,0-1.0239.1702-1.1431.6282-.3322,1.2825,2.3405,1.8846,1.7498,4.1615-.3047,1.1779-1.3742,2.3825-3.4454,2.3825-.746,0-1.4722-.1445-2.1491-.3012l.3034-2.1598Z"/>
    <polygon class="st0" points="249.2647 509.0472 251.985 509.0472 253.3436 514.7278 253.3651 514.7278 254.8154 509.0472 256.8338 509.0472 254.6052 517.7767 251.9173 517.7767 250.5 512.201 250.4781 512.201 249.0545 517.7767 247.0362 517.7767 249.2647 509.0472"/>
    <path class="st0" d="M256.5381,515.4456c.4945.3398,1.1223.5882,1.7581.5882.3735,0,1.0372-.0646,1.1939-.68.2846-1.1129-2.2748-2.0024-1.7064-4.2276.2599-1.0212,1.247-2.2641,3.2647-2.2641.6588,0,1.3005.105,1.8784.2485l-.2752,2.0684c-.4346-.2752-.9618-.4458-1.4989-.4458-.352,0-1.009.1706-1.1261.6286-.3269,1.2832,2.305,1.8846,1.7237,4.1615-.3009,1.1779-1.354,2.3825-3.3947,2.3825-.7342,0-1.4437-.1445-2.1167-.3013l.2992-2.1591Z"/>
    <polygon class="st0" points="307.5834 508.9988 309.8864 508.9982 307.6585 517.7281 305.3548 517.7281 307.5834 508.9988"/>
    <polygon class="st0" points="316.0034 512.447 315.526 514.3181 312.4656 514.3181 312.0615 515.9018 315.7029 515.9018 315.2258 517.7733 309.2804 517.7733 311.508 509.0437 317.4541 509.0437 316.9763 510.9158 313.3346 510.9158 312.9437 512.447 316.0034 512.447"/>
    <polygon class="st0" points="331.1443 512.4464 330.6669 514.3174 327.6058 514.3174 327.2021 515.9018 330.8438 515.9018 330.3657 517.7733 324.4203 517.7733 326.6496 509.0437 332.5943 509.0437 332.1162 510.9158 328.4752 510.9158 328.0839 512.447 331.1443 512.4464"/>
    <path class="st0" d="M318.9082,509.0461h3.9055c1.9308,0,2.4391.9291,1.9982,2.6574-.2644,1.0333-1.0473,1.7793-2.1668,2.2119.2036,1.3085.3801,2.682.6161,3.8599h-2.4791c-.0837-1.6487-.1633-3.3102-.3742-4.894.1987.0389.3787.065.5542.065.6362,0,1.401-.2877,1.6174-1.1383.2376-.9291-.475-.9291-.8044-.9291h-1.1303l-1.7606,6.8964h-2.2039l2.2279-8.7292Z"/>
    <path class="st0" d="M332.152,515.4689c.4941.3409,1.1216.5893,1.7578.5893.3732,0,1.0368-.0657,1.1942-.68.2839-1.1129-2.2755-2.0034-1.7078-4.2275.2617-1.0212,1.2481-2.2647,3.2661-2.2647.6581,0,1.3009.1049,1.8784.2491l-.2759,2.0674c-.4347-.2752-.9618-.4447-1.499-.4447-.3509,0-1.009.1696-1.1251.6282-.328,1.2825,2.304,1.8843,1.7231,4.1619-.3005,1.1779-1.3541,2.3822-3.3943,2.3822-.7352,0-1.4437-.1442-2.1174-.3009l.2999-2.1602Z"/>
    <path class="st0" d="M242.9823,513.4265h.803l-.1518-2.5007h-.0216l-1.5375,2.5007h.9997l-.0233,1.8322h-1.993l-1.508,2.5121h-2.5225c1.9753-2.8391,3.8498-5.7973,5.7383-8.7292h2.7644c.1789,2.8655.5285,5.8373.821,8.7292h-2.4458l-.1491-2.5121h-.7978l.024-1.8322Z"/>
    <path class="st0" d="M287.0847,513.421c.3256-1.4051-.0775-2.6038-1.418-2.6038-1.3926,0-2.3971,1.2696-2.7411,2.6178-.3447,1.3482.0153,2.6039,1.4083,2.6039,1.3259,0,2.4121-1.2529,2.7758-2.664l2.2359.1546c-.7793,2.9319-3.01,4.4204-5.4992,4.4204-2.6004,0-3.9631-1.6227-3.2206-4.5288.738-2.8915,2.9288-4.5149,5.5288-4.5149s4.0316,1.6928,3.1779,4.7692l-2.2477-.2544Z"/>
    <polygon class="st0" points="202.1788 526.5014 201.7003 528.3743 198.6232 528.3687 198.2184 529.9531 201.8799 529.9601 201.4015 531.8325 195.4238 531.8217 197.6558 523.0866 203.6336 523.0974 203.1551 524.9702 199.4932 524.9636 199.1016 526.4959 202.1788 526.5014"/>
    <path class="st0" d="M175.2895,523.0786l3.9263.0069c1.9413.0035,2.4538.9347,2.0114,2.6636-.2641,1.0344-1.0504,1.7797-2.1754,2.2105.2057,1.3103.3839,2.6862.623,3.8655l-2.4923-.0042c-.0859-1.6511-.1682-3.3151-.3808-4.9006.1991.0396.3801.066.5566.0667.6393.001,1.4079-.2863,1.6258-1.1372.2377-.9302-.4795-.9316-.8103-.9319l-1.1362-.0021-1.7633,6.9016-2.2168-.0038,2.2321-8.7351Z"/>
    <polygon class="st0" points="189.9461 523.0797 196.8393 523.0918 196.3609 524.9643 194.0777 524.9605 192.3241 531.8231 190.0079 531.819 191.7612 524.9566 189.4676 524.9525 189.9461 523.0797"/>
    <polygon class="st0" points="292.3866 526.6971 291.9082 528.5699 288.8307 528.5643 288.4259 530.1491 292.0878 530.1557 291.609 532.0281 285.6313 532.0174 287.8637 523.2822 293.8414 523.293 293.3626 525.1658 289.7011 525.1595 289.3095 526.6915 292.3866 526.6971"/>
    <polygon class="st0" points="268.7336 526.5994 268.2555 528.4722 265.1781 528.4667 264.7733 530.0515 268.4351 530.058 267.9563 531.9305 261.9786 531.9201 264.2111 523.1846 270.1888 523.1954 269.71 525.0682 266.0481 525.0619 265.6569 526.5942 268.7336 526.5994"/>
    <polygon class="st0" points="241.4215 526.6317 240.9431 528.5042 237.8656 528.4986 237.4608 530.0834 241.1227 530.09 240.6439 531.9625 234.6662 531.9521 236.8987 523.2166 242.8764 523.2273 242.3975 525.1001 238.7357 525.0939 238.3444 526.6262 241.4215 526.6317"/>
    <polygon class="st0" points="294.9745 523.2888 297.7097 523.2937 299.0804 528.9827 299.1026 528.9827 300.555 523.2986 302.5845 523.302 300.3521 532.0372 297.6502 532.0327 296.2194 526.4486 296.1972 526.4486 294.7715 532.0275 292.742 532.024 294.9745 523.2888"/>
    <polygon class="st0" points="271.3927 523.1773 274.1276 523.1822 275.4987 528.8711 275.5209 528.8711 276.9733 523.1874 279.0024 523.1905 276.7704 531.9256 274.0685 531.9211 272.6377 526.3371 272.6154 526.3371 271.1898 531.9163 269.1603 531.9124 271.3927 523.1773"/>
    <polygon class="st0" points="227.5826 523.2176 230.3174 523.2225 231.6885 528.9114 231.7107 528.9114 233.1631 523.2277 235.1923 523.2312 232.9602 531.9663 230.2584 531.9618 228.8275 526.3774 228.8053 526.3774 227.3797 531.9565 225.3502 531.9527 227.5826 523.2176"/>
    <path class="st0" d="M256.395,523.1665l3.9259.0069c1.9416.0035,2.4538.9347,2.0118,2.6633-.2644,1.0347-1.0507,1.78-2.1758,2.2109.206,1.3103.3839,2.6859.6234,3.8655l-2.4927-.0042c-.0858-1.6512-.1678-3.3151-.3808-4.9006.1994.0396.3805.066.557.0664.6393.0014,1.4079-.286,1.6254-1.1369.2377-.9301-.4795-.9315-.8103-.9319l-1.1358-.0021-1.7634,6.9016-2.2171-.0038,2.2324-8.7351Z"/>
    <polygon class="st0" points="280.4566 523.1672 286.7324 523.1784 286.2435 525.0901 281.3499 530.0348 284.9343 530.041 284.4558 531.9135 278.0146 531.902 278.5035 529.9903 283.3634 525.0459 279.9781 525.04 280.4566 523.1672"/>
    <path class="st0" d="M254.019,526.7839l-1.2581,4.9242c-1.0073.1425-2.2154.3367-3.6052.3343-2.305-.0038-3.6768-1.631-2.934-4.5385.7397-2.8944,2.9412-4.5152,5.5556-4.5104.9923.0014,1.8523.1341,2.681.3451l-.3711,2.0566c-.673-.3026-1.4201-.4871-2.214-.4889-1.6105-.0028-2.9336,1.0302-3.402,2.8638-.4152,1.624.2154,2.4371,1.4291,2.4395.3415.0007.7331-.0646,1.0854-.2342l.3482-1.362-.9593-.0017.4684-1.8332,3.1761.0056Z"/>
    <polygon class="st0" points="182.8864 523.0668 189.1619 523.0776 188.6734 524.9897 183.7794 529.934 187.3641 529.9403 186.8856 531.8131 180.4444 531.8016 180.9333 529.8895 185.7932 524.9452 182.4076 524.9393 182.8864 523.0668"/>
    <path class="st0" d="M218.1369,532.1331l-2.403.0035,2.3381-8.8095,2.4093-.0035-.9138,3.3999,3.131-.0048.9013-3.3996,2.4156-.0038-2.3443,8.8095-2.4152.0035.9527-3.5983-3.1185.0049-.9531,3.5983Z"/>
    <path class="st0" d="M169.2753,522.3587c-.3127,0-.5667-.2536-.5667-.5667,0-.3127.254-.5664.5667-.5664.3131,0,.5667.2536.5667.5664,0,.3131-.2536.5667-.5667.5667Z"/>
    <path class="st0" d="M171.6475,522.3587c.3131,0,.5667-.2536.5667-.5667,0-.3127-.2536-.5664-.5667-.5664s-.5667.2536-.5667.5664c0,.3131.2536.5667.5667.5667Z"/>
    <path d="M248.9743,520.4612"/>
    <line class="st2" x1="335.5664" y1="520.2388" x2="168.0676" y2="520.2388"/>
    <path class="st0" d="M213.6216,527.6884c.3259-1.4055-.0771-2.6042-1.4176-2.6042-1.3926,0-2.3971,1.2696-2.7411,2.6178-.3447,1.3482.0153,2.6042,1.4083,2.6042,1.3259,0,2.4121-1.2529,2.7759-2.6643l2.2359.1546c-.7794,2.9319-3.0101,4.4204-5.4993,4.4204-2.6004,0-3.9631-1.6227-3.2209-4.5284.7384-2.8919,2.9291-4.5149,5.5288-4.5149s4.0319,1.6925,3.1782,4.7689l-2.2481-.254Z"/>
    <path class="st0" d="M169.122,527.4604h.803l-.1519-2.5007h-.0215l-1.5375,2.5007h.9997l-.0233,1.8322h-1.993l-1.508,2.5122h-2.5225c1.9753-2.8391,3.8498-5.7974,5.7383-8.7292h2.7644c.179,2.8655.5285,5.8373.821,8.7292h-2.4458l-.149-2.5122h-.7978l.024-1.8322Z"/>
  </g>
  <g>
    <path class="st3" d="M97.914,341.7354c0,.7197-.2451,1.3252-.7344,1.8154-.4897.4902-1.0708.7344-1.7427.7344-.6724,0-1.2529-.2441-1.7422-.7344-.4897-.4902-.7344-1.0957-.7344-1.8154v-25.9199l-10.4834,14.2803c-.0576.0996-.1152.1904-.1729.2695-.0576.0801-.125.1602-.2017.2402-.2495.2598-.4995.4502-.7485.5703-.4419.2197-.8784.29-1.3105.21s-.8306-.3203-1.1953-.7207c-.1919-.1797-.3555-.4092-.4893-.6895l-10.4258-14.1299v25.8896c0,.7197-.2446,1.3252-.7344,1.8154s-1.0801.7344-1.771.7344c-.6724,0-1.2529-.2441-1.7427-.7344s-.7344-1.0957-.7344-1.8154v-33.2998c0-.6797.2158-1.2549.6479-1.7256.4321-.4697.9551-.7344,1.5698-.7949.4028-.0596.7964-.0244,1.1807.1055.3838.1299.7007.3652.9502.7051l13.1616,17.9395,13.104-17.8799c.1729-.2402.3838-.4297.6338-.5693.2495-.1396.5186-.2305.8062-.2705.1919-.04.3359-.0596.4321-.0596.6914,0,1.2769.2451,1.7568.7344.48.4902.7202,1.0957.7202,1.8154v33.2998Z"/>
    <path class="st3" d="M118.2221,327.125c-1.7305-.3398-3.3682-.7949-4.9131-1.3643-1.5449-.5703-2.9048-1.29-4.0786-2.1602-1.1743-.8701-2.1016-1.9004-2.7812-3.0898-.6797-1.1904-1.0195-2.585-1.0195-4.1855,0-1.6201.3555-3.0898,1.0659-4.4102.7109-1.3193,1.6582-2.4492,2.8428-3.3896,1.1846-.9395,2.5337-1.665,4.0479-2.1748s3.0747-.7656,4.6816-.7656c1.2148,0,2.3994.1201,3.5532.3604,1.1533.2402,2.2402.5957,3.2603,1.0654,1.0195.4697,1.9414,1.0547,2.7651,1.7549s1.5142,1.5098,2.0703,2.4297c.3091.5.3911,1.0049.2476,1.5146-.1445.5107-.3813.915-.7109,1.2158-.1855.1797-.4121.3252-.6797.4346-.2681.1104-.5513.1758-.8496.1953-.2988.0195-.6079-.0049-.9272-.0752s-.623-.2148-.9116-.4355c-.5767-.5791-1.1431-1.0791-1.6992-1.5-.5562-.4199-1.1436-.7598-1.7612-1.0195-.6182-.2598-1.2725-.4502-1.9624-.5703-.6904-.1201-1.4678-.1797-2.333-.1797-.9268,0-1.8335.125-2.7192.375s-1.6738.6104-2.3638,1.0801c-.6904.4697-1.2412,1.0449-1.6533,1.7246-.4121.6807-.6177,1.4609-.6177,2.3398,0,.9609.2573,1.7559.7725,2.3857.5146.6299,1.1997,1.1602,2.0547,1.5898.8545.4307,1.8281.7852,2.9204,1.0645,1.0913.2803,2.2036.5508,3.3369.8105,1.4834.4004,2.9302.8799,4.3413,1.4395,1.4111.5605,2.6626,1.2607,3.7544,2.1006s1.9727,1.8496,2.6421,3.0303c.6689,1.1797,1.0044,2.5898,1.0044,4.2295,0,1.7207-.3555,3.2949-1.0664,4.7246-.7104,1.4307-1.6841,2.6602-2.9199,3.6904s-2.6782,1.835-4.3257,2.415c-1.6484.5801-3.3994.8701-5.2534.8701-1.5244,0-2.9814-.1904-4.3721-.5703s-2.668-.8994-3.8315-1.5596c-1.1641-.6602-2.1841-1.4404-3.0591-2.3398-.876-.9004-1.5503-1.8604-2.0239-2.8809-.2065-.4199-.3198-.8145-.3403-1.1846s.0259-.7051.1392-1.0049.2832-.5645.5098-.7949c.2266-.2295.4839-.415.7729-.5547.6587-.3398,1.2822-.4102,1.8691-.2109.5874.2002,1.1792.6807,1.7769,1.4404.8442,1.4004,2.0342,2.5,3.5688,3.2998,1.5347.8008,3.27,1.2002,5.2065,1.2002.9683,0,1.9316-.1348,2.8892-.4053.958-.2695,1.8125-.6699,2.5649-1.1992.7515-.5303,1.3643-1.1855,1.8384-1.9658.4736-.7793.7109-1.6797.7109-2.6992,0-1-.2373-1.8301-.7109-2.4902-.4741-.6602-1.0918-1.21-1.854-1.6504-.7622-.4395-1.6221-.8047-2.5801-1.0947s-1.9209-.5752-2.8892-.8555Z"/>
    <path class="st3" d="M164.1084,305.8857c.7417,0,1.3696.25,1.8848.75.5146.5.7725,1.1094.7725,1.8301,0,.7393-.2578,1.3604-.7725,1.8594-.5151.5-1.1431.75-1.8848.75h-18.6943v12.8398h14.3682c.7417,0,1.3696.2656,1.8853.7949.5146.5303.7725,1.1553.7725,1.875,0,.7207-.2578,1.3203-.7725,1.8008-.5156.4795-1.1436.7197-1.8853.7197h-14.3682v12.6299c0,.7197-.2627,1.3252-.7881,1.8154s-1.1587.7344-1.9004.7344-1.3701-.25-1.8848-.75c-.5151-.499-.7725-1.0996-.7725-1.7998v-33.3604c0-.2793.0508-.5645.1543-.8545.103-.29.2573-.5547.4634-.7949.2056-.2402.4736-.4395.8037-.6006.3291-.1592.7412-.2393,1.2358-.2393h21.3828Z"/>
    <path class="st0" d="M209.8686,311.4053c.52.5.7803,1.1006.7803,1.7998,0,.7002-.2603,1.3008-.7803,1.8008-.5.5-1.1001.7598-1.7998.7793-.7002.0205-1.3101-.2295-1.8301-.75-1.4399-1.3994-3.0449-2.46-4.8149-3.1797s-3.585-1.0801-5.4453-1.0801c-1.9199,0-3.7451.3701-5.4746,1.1104-1.7305.7402-3.2451,1.7549-4.5449,3.0449-1.3008,1.29-2.3306,2.8096-3.0903,4.5596-.7603,1.75-1.1401,3.6357-1.1401,5.6553,0,1.9199.3604,3.7451,1.0801,5.4746.7202,1.7305,1.7148,3.251,2.9854,4.5605,1.2695,1.3096,2.7695,2.3545,4.5,3.1348,1.7295.7803,3.5947,1.1699,5.5947,1.1699,1.7598,0,3.46-.2646,5.1001-.7949,1.6396-.5293,3.1802-1.415,4.6201-2.6553v-5.4902h-5.9399c-.3604,0-.6953-.0693-1.0054-.21-.3101-.1396-.5801-.3291-.8101-.5693s-.4102-.5146-.5396-.8252c-.1304-.3096-.1953-.6455-.1953-1.0049,0-.7002.2446-1.2998.7349-1.7998s1.0952-.75,1.8154-.75h8.4897c.7397,0,1.3696.2393,1.8901.7197.5195.4795.7798,1.0898.7798,1.8301v9.1797c0,.4404-.0801.8105-.2397,1.1104-.1606.2998-.3706.5898-.6299.8701-2.1802,1.96-4.4653,3.3799-6.8555,4.2598s-4.8447,1.3096-7.3647,1.29c-1.7402,0-3.4199-.2354-5.04-.7051s-3.1401-1.125-4.5601-1.9648c-1.4204-.8398-2.7202-1.8555-3.8999-3.0449-1.1802-1.1904-2.1899-2.5049-3.0298-3.9453-.8403-1.4404-1.4956-2.9854-1.9653-4.6348-.4702-1.6504-.7051-3.375-.7051-5.1748,0-1.7803.2251-3.5.6753-5.1602.4497-1.6602,1.0898-3.2148,1.9199-4.665.8296-1.4502,1.8301-2.7754,3-3.9756,1.1699-1.1992,2.4751-2.2295,3.915-3.0898,1.4399-.8594,2.9897-1.5244,4.6499-1.9951,1.6597-.4697,3.3999-.7051,5.2202-.7051,2.6797,0,5.1899.4912,7.5298,1.4707s4.48,2.4297,6.4199,4.3496Z"/>
    <path class="st0" d="M223.2485,327.7256c0,1.6602.3301,3.2051.9897,4.6348.6602,1.4307,1.5449,2.6699,2.6553,3.7197,1.1099,1.0508,2.3999,1.8809,3.8696,2.4902,1.4702.6104,3.0151.915,4.6353.915s3.145-.3047,4.5752-.915c1.4297-.6094,2.6699-1.4502,3.7197-2.5195,1.0503-1.0703,1.8794-2.3203,2.4897-3.75s.915-2.9648.915-4.6055v-19.2598c0-.7197.25-1.3252.75-1.8154.5-.4893,1.1104-.7344,1.8301-.7344s1.3301.2451,1.8301.7344c.5.4902.75,1.0957.75,1.8154v19.29c0,2.3203-.4404,4.5098-1.3203,6.5693-.8799,2.0605-2.085,3.8555-3.6152,5.3857-1.5293,1.5293-3.3145,2.7402-5.3545,3.6299s-4.23,1.335-6.5698,1.335-4.5601-.4453-6.6602-1.335-3.9399-2.1006-5.52-3.6299c-1.5801-1.5303-2.8301-3.3252-3.75-5.3857-.9199-2.0596-1.3799-4.249-1.3799-6.5693v-19.2002c0-.7393.25-1.3594.75-1.8604.4995-.499,1.1099-.75,1.8301-.75.7197,0,1.3296.251,1.8301.75.4995.501.75,1.1211.75,1.8604v19.2002Z"/>
    <path class="st0" d="M262.4575,344.2852c-.7002-.0596-1.2744-.334-1.7246-.8252-.4502-.4893-.6748-1.084-.6748-1.7842v-33.21c0-.7402.2549-1.3555.7646-1.8457.5098-.4893,1.125-.7344,1.8447-.7344h21.8408c.7197,0,1.3242.25,1.8145.75s.7354,1.1094.7354,1.8301c0,.7197-.2451,1.335-.7354,1.8447s-1.0947.7646-1.8145.7646h-19.2607v10.9502h14.8506c.3594,0,.6992.0703,1.0195.21.3203.1406.6006.3301.8398.5703.2402.2393.4248.5146.5557.8252.1299.3096.1943.6445.1943,1.0049,0,.7197-.25,1.3252-.75,1.8145-.5.4902-1.1201.7354-1.8594.7354h-14.8506v11.9102h19.2607c.3594,0,.6943.0703,1.0049.21.3096.1396.5791.3301.8096.5693.2295.2402.4102.5156.54.8252.1299.3105.1953.6455.1953,1.0049,0,.7402-.2451,1.3604-.7354,1.8604s-1.0947.7393-1.8145.7197h-22.0508Z"/>
    <path class="st0" d="M304.4565,327.125c-1.6797-.3398-3.2695-.7949-4.7695-1.3643-1.5-.5703-2.8203-1.29-3.96-2.1602s-2.04-1.9004-2.7002-3.0898c-.6602-1.1904-.9902-2.585-.9902-4.1855,0-1.6201.3457-3.0898,1.0352-4.4102.6904-1.3193,1.6094-2.4492,2.7598-3.3896,1.1504-.9395,2.46-1.665,3.9307-2.1748,1.4697-.5098,2.9844-.7656,4.5449-.7656,1.1797,0,2.3291.1201,3.4502.3604,1.1191.2402,2.1748.5957,3.165,1.0654.9893.4697,1.8848,1.0547,2.6846,1.7549s1.4697,1.5098,2.0098,2.4297c.2998.5.3799,1.0049.2402,1.5146-.1406.5107-.3701.915-.6904,1.2158-.1797.1797-.3994.3252-.6592.4346-.2607.1104-.5361.1758-.8252.1953-.29.0195-.5908-.0049-.9004-.0752-.3105-.0703-.6045-.2148-.8848-.4355-.5605-.5791-1.1104-1.0791-1.6504-1.5-.54-.4199-1.1094-.7598-1.71-1.0195-.5996-.2598-1.2344-.4502-1.9043-.5703-.6709-.1201-1.4258-.1797-2.2656-.1797-.8994,0-1.7803.125-2.6396.375-.8604.25-1.625.6104-2.2949,1.0801-.6709.4697-1.2051,1.0449-1.6055,1.7246-.4004.6807-.5996,1.4609-.5996,2.3398,0,.9609.25,1.7559.75,2.3857s1.165,1.1602,1.9951,1.5898c.8291.4307,1.7744.7852,2.835,1.0645,1.0596.2803,2.1396.5508,3.2402.8105,1.4395.4004,2.8447.8799,4.2148,1.4395,1.3691.5605,2.584,1.2607,3.6445,2.1006,1.0596.8398,1.915,1.8496,2.5654,3.0303.6494,1.1797.9746,2.5898.9746,4.2295,0,1.7207-.3447,3.2949-1.0352,4.7246-.6895,1.4307-1.6348,2.6602-2.835,3.6904s-2.5996,1.835-4.2002,2.415c-1.5996.5801-3.2998.8701-5.0996.8701-1.4805,0-2.8945-.1904-4.2451-.5703-1.3496-.3799-2.5898-.8994-3.7197-1.5596s-2.1201-1.4404-2.9697-2.3398c-.8506-.9004-1.5059-1.8604-1.9658-2.8809-.1992-.4199-.3096-.8145-.3291-1.1846-.0205-.3701.0244-.7051.1348-1.0049.1094-.2998.2744-.5645.4951-.7949.2197-.2295.4697-.415.75-.5547.6396-.3398,1.2451-.4102,1.8145-.2109.5703.2002,1.1445.6807,1.7256,1.4404.8193,1.4004,1.9746,2.5,3.4648,3.2998,1.4893.8008,3.1748,1.2002,5.0547,1.2002.9404,0,1.875-.1348,2.8047-.4053.9307-.2695,1.7598-.6699,2.4902-1.1992.7305-.5303,1.3252-1.1855,1.7852-1.9658.46-.7793.6904-1.6797.6904-2.6992,0-1-.2305-1.8301-.6904-2.4902s-1.0605-1.21-1.7998-1.6504c-.7402-.4395-1.5752-.8047-2.5049-1.0947-.9307-.29-1.8652-.5752-2.8057-.8555Z"/>
    <path class="st0" d="M336.7368,327.125c-1.6797-.3398-3.2705-.7949-4.7705-1.3643-1.5-.5703-2.8193-1.29-3.96-2.1602-1.1396-.8701-2.04-1.9004-2.6992-3.0898-.6602-1.1904-.9902-2.585-.9902-4.1855,0-1.6201.3447-3.0898,1.0352-4.4102.6895-1.3193,1.6094-2.4492,2.7598-3.3896,1.1494-.9395,2.46-1.665,3.9297-2.1748s2.9854-.7656,4.5449-.7656c1.1797,0,2.3301.1201,3.4502.3604,1.1211.2402,2.1758.5957,3.166,1.0654s1.8848,1.0547,2.6836,1.7549c.8008.7002,1.4707,1.5098,2.0098,2.4297.3008.5.3809,1.0049.2402,1.5146-.1387.5107-.3691.915-.6895,1.2158-.1797.1797-.4004.3252-.6602.4346-.2598.1104-.5352.1758-.8242.1953-.291.0195-.5898-.0049-.9004-.0752s-.6055-.2148-.8848-.4355c-.5605-.5791-1.1094-1.0791-1.6504-1.5-.5391-.4199-1.1094-.7598-1.709-1.0195-.6016-.2598-1.2363-.4502-1.9062-.5703s-1.4248-.1797-2.2646-.1797c-.9004,0-1.7803.125-2.6406.375-.8594.25-1.625.6104-2.2949,1.0801s-1.2051,1.0449-1.6045,1.7246c-.4004.6807-.6006,1.4609-.6006,2.3398,0,.9609.25,1.7559.75,2.3857s1.165,1.1602,1.9951,1.5898c.8301.4307,1.7754.7852,2.835,1.0645,1.0605.2803,2.1396.5508,3.2402.8105,1.4404.4004,2.8447.8799,4.2158,1.4395,1.3691.5605,2.584,1.2607,3.6445,2.1006s1.9141,1.8496,2.5645,3.0303c.6504,1.1797.9746,2.5898.9746,4.2295,0,1.7207-.3438,3.2949-1.0332,4.7246-.6914,1.4307-1.6367,2.6602-2.8359,3.6904s-2.5996,1.835-4.1992,2.415c-1.6016.5801-3.3008.8701-5.1006.8701-1.4805,0-2.8955-.1904-4.2451-.5703-1.3506-.3799-2.5908-.8994-3.7207-1.5596s-2.1201-1.4404-2.9697-2.3398c-.8506-.9004-1.5049-1.8604-1.9648-2.8809-.2002-.4199-.3105-.8145-.3301-1.1846-.0205-.3701.0244-.7051.1348-1.0049s.2754-.5645.4951-.7949c.2197-.2295.4697-.415.75-.5547.6396-.3398,1.2451-.4102,1.8154-.2109.5693.2002,1.1445.6807,1.7246,1.4404.8203,1.4004,1.9746,2.5,3.4648,3.2998,1.4902.8008,3.1748,1.2002,5.0557,1.2002.9395,0,1.875-.1348,2.8047-.4053.9297-.2695,1.7598-.6699,2.4902-1.1992.7305-.5303,1.3242-1.1855,1.7852-1.9658.459-.7793.6895-1.6797.6895-2.6992,0-1-.2305-1.8301-.6895-2.4902-.4609-.6602-1.0605-1.21-1.8008-1.6504-.7402-.4395-1.5742-.8047-2.5039-1.0947-.9307-.29-1.8662-.5752-2.8057-.8555Z"/>
    <path class="st3" d="M371.5668,305.8857c1.9395,0,3.7695.3496,5.4902,1.0498,1.7197.7002,3.2197,1.6602,4.5,2.8799,1.2793,1.2197,2.2891,2.6699,3.0293,4.3496.7402,1.6807,1.1104,3.4902,1.1104,5.4307,0,1.3994-.1953,2.7197-.585,3.96s-.9404,2.375-1.6504,3.4043c-.71,1.0303-1.5547,1.9453-2.5352,2.7451-.9795.8008-2.0596,1.4609-3.2393,1.9805l6.54,8.1602c.2598.2598.4541.5547.585.8848.1299.3301.1895.6602.1797.9902-.0107.3301-.085.6553-.2246.9746-.1406.3203-.3408.5996-.6006.8398-.5205.5-1.0898.7451-1.71.7354s-1.1904-.2646-1.71-.7646l-8.7002-10.5605h-8.9092v8.79c0,.7197-.2559,1.3252-.7656,1.8154s-1.125.7344-1.8447.7344c-.7002,0-1.3047-.2441-1.8154-.7344-.5098-.4902-.7646-1.0957-.7646-1.8154v-33.2695c0-.3604.0693-.6953.21-1.0059.1396-.3096.3252-.585.5547-.8242.2305-.2402.5-.4248.8105-.5557.3096-.1299.6445-.1943,1.0049-.1943h11.04ZM363.1372,311.0752v16.71h8.46c1.2598,0,2.4346-.2148,3.5244-.6445s2.0303-1.0098,2.8203-1.7402c.79-.7295,1.4141-1.5947,1.875-2.5947.46-1,.6895-2.0703.6895-3.21,0-1.1602-.2295-2.2549-.6895-3.2852-.4609-1.0303-1.085-1.9355-1.875-2.7148-.79-.7803-1.7256-1.3955-2.8047-1.8457-1.0801-.4492-2.2402-.6748-3.4805-.6748h-8.5195Z"/>
  </g>
  <g id="_x39_31gOS">
    <path class="st0" d="M315.9679,182.498c0,49.732-40.3157,90.0477-90.0477,90.0477s-90.0477-40.3157-90.0477-90.0477,40.3157-90.0477,90.0477-90.0477,90.0477,40.3157,90.0477,90.0477ZM223.1987,97.8353c-14.4318,1.6007-25.4587,13.3648-32.2769,25.3529-1.2018,2.1131-6.417,12.2895-6.1682,14.0084,12.3367,4.0806,25.4325,6.0711,38.4451,6.0441v-45.4053ZM228.6318,143.2406c13.0766-.0891,26.5621-1.7377,38.7949-6.4-7.0119-17.1333-18.6899-36.3937-38.7949-39.0053v45.4053ZM201.8542,101.3319c-15.275,4.3807-29.2285,13.419-39.5774,25.4156,5.2574,3.6167,11.0823,6.401,17.0783,8.5674,5.0995-12.8238,11.9361-24.9034,22.4991-33.983ZM249.9763,101.3319c10.5276,9.0806,17.4515,21.1585,22.4991,33.9833,6.0098-2.1425,11.8211-4.9384,17.0784-8.5665-10.3216-11.9921-24.318-21.0658-39.5775-25.4168ZM171.5841,179.7201c.2092-13.2079,2.0552-26.4628,6.1592-39.0126l-18.7838-9.5142-.5726.1936c-10.4469,13.8465-16.703,30.8994-17.073,48.3332h30.2702ZM310.5166,179.7201c-.3496-15.1841-5.2901-31.2437-13.8112-43.8186-.5707-.8422-3.194-4.7109-3.8344-4.7081l-18.7838,9.5142c4.0798,12.5508,6.0016,25.8009,6.1592,39.0126h30.2702ZM223.1987,148.6738c-13.8584.0029-27.4165-2.7592-40.7348-6.1976-3.2538,12.116-5.6948,24.619-5.4466,37.244h46.1815v-31.0464ZM228.6318,148.6738v31.0464h46.1815c.2647-12.6363-2.1551-25.1305-5.4466-37.244-13.3096,3.4507-26.8826,6.2067-40.7348,6.1976ZM171.5841,185.1532h-30.2702c.2709,15.0153,5.0347,30.0312,13.0335,42.6559.7613,1.2015,5.0828,7.8198,6.1044,7.7306.6186-.054,7.5591-4.2131,9.0527-4.9263,2.8541-1.3629,6.0134-2.7053,9.0663-3.5517-4.4771-13.473-6.8687-27.6717-6.9867-41.9085ZM223.1987,185.1532h-46.1815c-.0591,13.4405,2.0576,27.1829,6.5824,39.8143,12.9007-3.5845,26.1591-5.7833,39.599-6.0514v-33.7629ZM274.8133,185.1532h-46.1815v33.7629c13.4348.2379,26.7108,2.4609,39.599,6.0514,4.4938-12.629,6.7006-26.3772,6.5824-39.8143ZM310.5166,185.1532h-30.2702c-.0978,14.2193-2.4884,28.4542-6.9864,41.9088,3.0528.8462,6.2118,2.1886,9.0659,3.5514,1.4937.7132,8.434,4.8723,9.0527,4.9263,1.0216.0891,5.3432-6.5291,6.1044-7.7306,8.0072-12.6377,12.7714-27.6228,13.0335-42.6559ZM223.1987,224.3492c-10.1896.0531-20.7012,1.2855-30.5911,3.754-1.118.2791-6.8578,1.6554-7.0173,2.293,6.3652,16.3487,18.6869,34.542,37.6084,36.6417v-42.6887ZM228.6318,267.038c18.9564-2.1071,31.2317-20.2647,37.6084-36.6417-.1576-.6299-5.6204-1.943-6.7055-2.2168-9.9636-2.5144-20.6322-3.7604-30.9029-3.8302v42.6887ZM180.4726,232.1398c-.9062-.6562-16.6551,6.9313-16.6434,7.9267,10.2986,10.9332,23.4146,19.5455,38.025,23.4748-9.788-8.3406-16.6415-19.5224-21.3816-31.4015ZM288.0069,239.4897c-5.529-2.4482-10.6513-6.0219-16.6491-7.3499-4.6163,11.9234-11.6321,23.0487-21.3816,31.4015,10.7664-2.8931,21.3247-8.6093,29.8877-15.7077,1.9692-1.6324,6.4259-5.4417,7.7614-7.3737.2266-.3278.5404-.3835.3816-.9702Z"/>
  </g>
  <g>
    <path class="st4" d="M264.7351,98.7206c0-21.4369-17.378-38.8148-38.8148-38.8148s-38.8148,17.378-38.8148,38.8148c0,6.469,1.5914,12.563,4.3904,17.9267l33.8509,73.6966s.1649.3675.3701.3675c.1931,0,.3565-.361.3565-.361l35.9007-76.9939-.0738-.0738c1.8223-4.4979,2.8348-9.4105,2.8348-14.5621Z"/>
    <circle class="st1" cx="225.9203" cy="99.7315" r="29.0182"/>
  </g>
  <path class="st3" d="M214.3421,89.6926c0-.1388.0434-.3463.1331-.6239.3548-1.109.8422-2.2529,1.4638-3.4313.621-1.1784,1.4079-2.2524,2.3623-3.2226.9533-.9708,2.073-1.7785,3.3602-2.4261,1.2861-.647,2.7719-.9708,4.4584-.9708,1.7735,0,3.3602.3238,4.7574.9708,1.3978.6476,2.584,1.4903,3.5599,2.5299.9753,1.0396,1.7306,2.2072,2.2625,3.5001.5325,1.2946.7987,2.5648.7987,3.8126,0,1.1552-.0998,2.1954-.2995,3.1188-.1997.9251-.5105,1.7797-.9319,2.5648-.4219.7863-.9544,1.5715-1.5969,2.3567-.6436.7863-1.4085,1.6178-2.2952,2.4949-.577.5545-1.043,1.052-1.3978,1.4903-.3554.44-.6549.8783-.898,1.3171-.2442.44-.4439.9132-.599,1.4209-.1557.5094-.3221,1.109-.4992,1.8022-.1331.5088-.3774.9945-.7316,1.4553-.3559.4625-.9544.6932-1.7966.6932h-2.8616c-.7547,0-1.3205-.2307-1.6967-.6932-.3774-.4608-.5658-.9465-.5658-1.4553v-.2775c.0886-1.1541.2437-2.1937.4659-3.1188.2217-.924.5426-1.8022.9651-2.6342.4208-.8314.942-1.6635,1.5636-2.4949.6205-.832,1.3972-1.6866,2.3291-2.5648.8422-.7852,1.585-1.6048,2.2287-2.4605.6425-.8546.9651-1.8129.9651-2.8768,0-.8771-.3554-1.6742-1.065-2.3911-.7096-.7158-1.6195-1.0746-2.7279-1.0746-.8879,0-1.5755.2775-2.0628.832-.4885.5545-.9099,1.202-1.2641,1.941-.0897.185-.1895.37-.2995.5545-.1111.185-.211.3463-.2995.4851-.2662.5088-.5883.9595-.9651,1.3515-.3774.3932-.876.5889-1.4971.5889-.1331,0-.3886-.0344-.7649-.1038-.3774-.0694-.7767-.1613-1.1981-.277-.4219-.1151-.8213-.2189-1.1975-.3119-.3774-.0925-.6323-.1613-.7654-.2081-.9313-.3695-1.3972-.924-1.3972-1.6635ZM227.018,111.4688c.599.3007,1.0983.682,1.4976,1.1434.3988.4625.6983.9708.898,1.5253s.2995,1.0858.2995,1.5941c0,1.0633-.3994,2.1142-1.1975,3.1537-.7987,1.0396-1.9748,1.5597-3.5272,1.5597s-2.751-.5201-3.5932-1.5597c-.8427-1.0396-1.2641-2.0905-1.2641-3.1537,0-1.0627.4214-2.1142,1.2641-3.1537.8422-1.0396,2.0403-1.5597,3.5932-1.5597.7542,0,1.4311.1506,2.0295.4507Z"/>
</svg>